<?xml version="1.0" encoding="UTF-8"?>
<!-- Generator: Adobe Illustrator 19.0.0, SVG Export Plug-In . SVG Version: 6.00 Build 0)  -->
<svg version="1.1" id="Layer_1" xmlns="http://www.w3.org/2000/svg" xmlns:xlink="http://www.w3.org/1999/xlink" x="0px" y="0px" viewBox="0 0 96 96" style="enable-background:new 0 0 96 96;" xml:space="preserve">
<style type="text/css">
	.st0{fill:#333333;}
</style>
<g id="XMLID_2_">
	<path id="XMLID_7_" class="st0" d="M72,69.3c0,1.4-0.7,2.7-2.1,3.9s-3.3,2.1-5.6,2.8c-2.3,0.7-4.9,1.2-7.7,1.6   C53.9,77.8,51,78,48,78c-3,0-5.9-0.2-8.6-0.5c-2.8-0.4-5.3-0.9-7.7-1.6s-4.2-1.6-5.6-2.8C24.7,72,24,70.7,24,69.3   c0-1.1,0.4-2.1,1.1-3s1.8-1.7,3.1-2.3s2.7-1.1,4-1.5c1.4-0.4,2.9-0.7,4.5-1c0.6-0.1,1.1,0,1.6,0.4c0.5,0.4,0.8,0.8,0.9,1.4   c0.1,0.6,0,1.1-0.4,1.6s-0.8,0.8-1.4,0.9c-1.3,0.2-2.5,0.5-3.6,0.8s-2,0.6-2.6,0.9S30,68,29.6,68.2c-0.5,0.3-0.8,0.5-0.9,0.7   c-0.2,0.2-0.3,0.3-0.3,0.4c0.1,0.3,0.4,0.6,0.9,0.9c0.5,0.4,1.4,0.7,2.5,1.1s2.4,0.8,3.9,1.1c1.5,0.3,3.3,0.6,5.5,0.9   c2.2,0.2,4.5,0.3,6.9,0.3s4.7-0.1,6.9-0.3c2.2-0.2,4-0.5,5.5-0.9c1.5-0.3,2.8-0.7,3.9-1.1c1.1-0.4,1.9-0.8,2.5-1.1   c0.5-0.4,0.9-0.7,0.9-0.9c0-0.1-0.1-0.2-0.3-0.4c-0.2-0.2-0.5-0.4-0.9-0.6c-0.5-0.3-1-0.5-1.7-0.8s-1.5-0.5-2.6-0.9   s-2.3-0.6-3.6-0.8c-0.6-0.1-1.1-0.4-1.4-0.9c-0.4-0.5-0.5-1-0.4-1.6c0.1-0.6,0.4-1.1,0.9-1.4c0.5-0.4,1-0.5,1.6-0.4   c1.6,0.3,3.1,0.6,4.5,1c1.4,0.4,2.7,0.9,4,1.5c1.3,0.6,2.4,1.4,3.1,2.3S72,68.2,72,69.3z M58.9,38.7v13.1c0,0.6-0.2,1.1-0.6,1.5   S57.3,54,56.7,54h-2.2v13.1c0,0.6-0.2,1.1-0.6,1.5s-0.9,0.6-1.5,0.6h-8.7c-0.6,0-1.1-0.2-1.5-0.6s-0.6-0.9-0.6-1.5V54h-2.2   c-0.6,0-1.1-0.2-1.5-0.6s-0.6-0.9-0.6-1.5V38.7c0-1.2,0.4-2.2,1.3-3.1c0.9-0.9,1.9-1.3,3.1-1.3h13.1c1.2,0,2.2,0.4,3.1,1.3   C58.5,36.5,58.9,37.5,58.9,38.7z M55.6,25.6c0,2.1-0.7,3.9-2.2,5.4c-1.5,1.5-3.3,2.2-5.4,2.2s-3.9-0.7-5.4-2.2   c-1.5-1.5-2.2-3.3-2.2-5.4s0.7-3.9,2.2-5.4c1.5-1.5,3.3-2.2,5.4-2.2s3.9,0.7,5.4,2.2C54.9,21.7,55.6,23.5,55.6,25.6z"/>
</g>
</svg>